<?xml version="1.0" encoding="utf-8"?>
<!-- Generator: Adobe Illustrator 19.2.1, SVG Export Plug-In . SVG Version: 6.00 Build 0)  -->
<svg version="1.1" id="layer" xmlns="http://www.w3.org/2000/svg" xmlns:xlink="http://www.w3.org/1999/xlink" x="0px" y="0px"
	 viewBox="0 0 652 652" style="enable-background:new 0 0 652 652;" xml:space="preserve">
<style type="text/css">
	.st0{fill:#FB503B;}
</style>
<path class="st0" d="M242.8,319.9c-1.6-1.6-21.5-26.6-24.8-30.8c-3.6-4.1-5.2-3.4-7.5-3.1c-2.3,0.3-27.4,4.7-30.3,4.9
	c-2.8,0.5-4.7,1.6-2.8,4.1c1.6,2.3,18.1,25.6,21.7,31l-66,15.8l-52.3-87.7c-2.1-3.1-2.6-4.1-7.2-3.9s-41.1,3.4-43.7,3.4
	c-2.6,0.3-5.4,1.3-2.8,7.5c2.6,6.2,44,95.2,45,97.8s4.1,6.7,11.1,5.2c7.2-1.8,32.1-8.3,45.8-11.9c7.2,12.9,21.7,39.3,24.6,43.2
	c3.6,5.2,6.2,4.1,11.6,2.6c4.4-1.3,67.8-24.1,70.6-25.4c2.8-1.3,4.7-2.1,2.6-4.9c-1.6-2.1-18.1-24.6-26.9-36.2
	c6-1.6,27.4-7.2,29.8-8C243.8,322.8,244.3,321.5,242.8,319.9z M123,344.5c-0.8,0.3-37.8,9.1-39.6,9.6c-2.1,0.5-2.1,0.3-2.1-0.5
	c-0.5-0.8-44-90.8-44.8-91.8c-0.5-1-0.5-2.1,0-2.1c0.5,0,34.9-3.1,36-3.1c1.3,0,1,0.3,1.6,1c0,0,48.4,83.6,49.2,84.9
	C124.3,343.7,123.7,344.2,123,344.5z M227,363.9c0.5,1,1.3,1.6-0.8,2.1c-1.8,0.8-62.4,21.2-63.6,21.7c-1.3,0.5-2.1,0.8-3.6-1.6
	c-1.6-2.3-21.2-36.2-21.2-36.2l64.4-16.8c1.6-0.5,2.1-0.8,3.1,0.8C206.3,335.7,226.5,363.1,227,363.9z M231.1,318.4
	c-1.6,0.3-25.1,6.2-25.1,6.2l-19.4-26.4c-0.5-0.8-1-1.6,0.3-1.8s23.3-4.1,24.3-4.4s1.8-0.5,3.1,1.3c1.3,1.6,17.9,22.8,18.6,23.5
	C233.7,317.6,232.7,318.1,231.1,318.4z"/>
<g>
	<path class="st0" d="M314.7,358c-0.7-0.7-1-1.4-1-2.4v-60.1c0-0.4,0.1-0.7,0.4-0.9c0.2-0.2,0.6-0.4,0.9-0.4h5
		c0.4,0,0.7,0.1,0.9,0.4c0.2,0.2,0.4,0.6,0.4,0.9v56.3H345c0.4,0,0.7,0.1,0.9,0.4c0.2,0.3,0.4,0.6,0.4,0.9v4.6
		c0,0.4-0.1,0.7-0.4,0.9c-0.3,0.3-0.6,0.4-0.9,0.4h-27.8C316.2,359,315.4,358.6,314.7,358z"/>
	<path class="st0" d="M359.2,356.1c-3-2.7-4.6-6.3-4.6-10.7c0-4.1,1.4-7.5,4.1-10.2c2.8-2.7,6.6-4.3,11.6-5l12.1-1.7
		c1.8-0.2,3.1-0.9,3.9-1.8c0.8-1,1.2-2.3,1.2-4.1v-0.7c0-3-1.2-5.4-3.5-7.2c-2.3-1.8-5.2-2.7-8.7-2.7c-2.7,0-5.1,0.5-7.1,1.6
		c-2,1.1-3.6,2.6-4.8,4.5c-0.5,0.8-1.1,1.2-1.9,1.2c-0.4,0-0.8-0.2-1.2-0.5l-2.5-1.7c-0.6-0.5-0.8-1-0.8-1.6c0-0.2,0.1-0.6,0.3-0.9
		c1.8-3,4.3-5.3,7.4-7c3.1-1.7,6.8-2.6,10.9-2.6c3.7,0,7,0.7,10,2.1c2.9,1.4,5.2,3.4,6.8,5.9c1.6,2.5,2.4,5.5,2.4,8.8v35.8
		c0,0.4-0.1,0.7-0.4,0.9c-0.2,0.3-0.6,0.4-0.9,0.4h-3.9c-0.4,0-0.7-0.1-0.9-0.4c-0.3-0.2-0.4-0.6-0.4-0.9v-6.4
		c-1.9,2.8-4.4,5-7.4,6.6c-3,1.6-6.3,2.4-9.8,2.4C366.2,360.2,362.2,358.8,359.2,356.1z M380,351.2c2.5-1.6,4.4-3.6,5.8-6.1
		s2.1-4.9,2.1-7.2v-3.8c-1.5,0.2-6.3,0.8-14.3,2l-2.6,0.4c-6.2,0.9-9.3,3.9-9.3,8.8c0,2.5,0.9,4.6,2.8,6.1c1.9,1.6,4.3,2.3,7.3,2.3
		C374.7,353.7,377.5,352.9,380,351.2z"/>
	<path class="st0" d="M406.7,358.6c-0.3-0.2-0.4-0.6-0.4-0.9v-4.3c0-0.4,0.1-0.7,0.4-0.9c0.2-0.2,0.6-0.4,0.9-0.4h7.7v-39.2h-7.7
		c-0.4,0-0.7-0.1-0.9-0.4c-0.3-0.2-0.4-0.6-0.4-0.9v-4c0-0.4,0.1-0.7,0.4-0.9c0.2-0.2,0.6-0.4,0.9-0.4h11.6c0.9,0,1.7,0.3,2.4,1
		s1,1.4,1,2.4v4.7l5.4-4.2c2.2-1.7,4.1-2.9,5.4-3.5c1.4-0.6,2.9-0.9,4.4-0.9h2.8c0.4,0,0.8,0.1,1,0.4c0.2,0.2,0.3,0.6,0.3,0.9v4.6
		c0,0.4-0.1,0.7-0.4,0.9c-0.3,0.2-0.6,0.4-0.9,0.4h-2c-1.6,0-3,0.3-4.4,1c-1.4,0.7-3.4,2.1-6.1,4.2l-5.5,4.4v29.6h10.8
		c0.4,0,0.7,0.1,0.9,0.4c0.2,0.2,0.4,0.6,0.4,0.9v4.3c0,0.4-0.1,0.7-0.4,0.9c-0.2,0.3-0.6,0.4-0.9,0.4h-25.8
		C407.3,359,407,358.8,406.7,358.6z"/>
	<path class="st0" d="M453.6,356.1c-3-2.7-4.6-6.3-4.6-10.7c0-4.1,1.4-7.5,4.1-10.2c2.8-2.7,6.6-4.3,11.6-5l12.1-1.7
		c1.8-0.2,3.1-0.9,3.9-1.8c0.8-1,1.2-2.3,1.2-4.1v-0.7c0-3-1.2-5.4-3.5-7.2c-2.3-1.8-5.2-2.7-8.7-2.7c-2.7,0-5.1,0.5-7.1,1.6
		c-2,1.1-3.6,2.6-4.8,4.5c-0.5,0.8-1.1,1.2-1.9,1.2c-0.4,0-0.8-0.2-1.2-0.5l-2.5-1.7c-0.6-0.5-0.8-1-0.8-1.6c0-0.2,0.1-0.6,0.3-0.9
		c1.8-3,4.3-5.3,7.4-7c3.1-1.7,6.8-2.6,10.9-2.6c3.7,0,7,0.7,10,2.1c2.9,1.4,5.2,3.4,6.8,5.9c1.6,2.5,2.4,5.5,2.4,8.8v35.8
		c0,0.4-0.1,0.7-0.4,0.9c-0.2,0.3-0.6,0.4-0.9,0.4h-3.9c-0.4,0-0.7-0.1-0.9-0.4c-0.3-0.2-0.4-0.6-0.4-0.9v-6.4
		c-1.9,2.8-4.4,5-7.4,6.6c-3,1.6-6.3,2.4-9.8,2.4C460.5,360.2,456.6,358.8,453.6,356.1z M474.3,351.2c2.5-1.6,4.4-3.6,5.8-6.1
		c1.4-2.5,2.1-4.9,2.1-7.2v-3.8c-1.5,0.2-6.3,0.8-14.3,2l-2.6,0.4c-6.2,0.9-9.3,3.9-9.3,8.8c0,2.5,0.9,4.6,2.8,6.1
		c1.9,1.6,4.3,2.3,7.3,2.3C469.1,353.7,471.8,352.9,474.3,351.2z"/>
	<path class="st0" d="M517.1,358.6c-0.3-0.2-0.6-0.5-0.7-0.9l-17.5-49.5c-0.1-0.1-0.1-0.3-0.1-0.7c0-0.4,0.1-0.7,0.4-1
		c0.3-0.3,0.6-0.4,1.1-0.4h4.3c0.4,0,0.7,0.1,1.1,0.3c0.3,0.2,0.6,0.5,0.7,0.9l14.7,42.5l14.4-42.5c0.1-0.4,0.4-0.7,0.7-0.9
		c0.3-0.2,0.7-0.3,1.1-0.3h4.1c0.6,0,1,0.2,1.3,0.6c0.3,0.4,0.3,0.9,0.1,1.4l-17.5,49.5c-0.1,0.4-0.4,0.7-0.7,0.9
		c-0.3,0.2-0.7,0.3-1.1,0.3h-5.3C517.8,359,517.5,358.9,517.1,358.6z"/>
	<path class="st0" d="M560.9,356.3c-3.1-1.8-5.6-4.3-7.4-7.4c-1.8-3.1-2.7-6.5-2.7-10.2v-13.3c0-3.7,0.9-7.1,2.7-10.2
		c1.8-3.1,4.3-5.6,7.4-7.4c3.1-1.8,6.5-2.7,10.2-2.7c3.7,0,7,0.9,10.2,2.7c3.1,1.8,5.6,4.3,7.4,7.4c1.8,3.1,2.7,6.5,2.7,10.2v6.3
		c0,0.9-0.3,1.7-1,2.4c-0.7,0.7-1.4,1-2.4,1h-29.8v4.1c0,2.4,0.6,4.5,1.7,6.5c1.1,2,2.7,3.6,4.7,4.7c2,1.1,4.2,1.7,6.5,1.7h13.5
		c0.4,0,0.7,0.1,0.9,0.4c0.2,0.2,0.4,0.6,0.4,0.9v4.3c0,0.4-0.1,0.7-0.4,0.9c-0.3,0.3-0.6,0.4-0.9,0.4H571
		C567.3,359,564,358.1,560.9,356.3z M584,328.3v-3.4c0-2.4-0.6-4.5-1.7-6.5c-1.1-2-2.7-3.6-4.7-4.7c-2-1.1-4.2-1.7-6.5-1.7
		c-2.4,0-4.5,0.6-6.5,1.7c-2,1.1-3.6,2.7-4.7,4.7c-1.2,2-1.7,4.2-1.7,6.5v3.4H584z"/>
	<path class="st0" d="M608.5,358c-0.7-0.7-1-1.4-1-2.4v-60.4h-8.7c-0.4,0-0.7-0.1-0.9-0.4c-0.2-0.2-0.4-0.6-0.4-0.9v-4.3
		c0-0.4,0.1-0.7,0.4-0.9c0.2-0.2,0.6-0.4,0.9-0.4h12.6c0.9,0,1.7,0.3,2.4,1c0.7,0.7,1,1.4,1,2.4v60.4h9.9c0.4,0,0.7,0.1,0.9,0.4
		s0.4,0.6,0.4,0.9v4.3c0,0.4-0.1,0.7-0.4,0.9c-0.2,0.3-0.6,0.4-0.9,0.4h-13.8C609.9,359,609.1,358.6,608.5,358z"/>
</g>
</svg>
